# Blender v2.79 (sub 0) OBJ File: 'testMap.blend'
# www.blender.org
mtllib testMap.mtl
o Icosphere
v 7.937796 -4.162261 -19.726322
v 10.343927 -2.324161 -17.978186
v 7.018754 -2.324162 -16.897753
v 4.963659 -2.324148 -19.726322
v 7.018754 -2.324162 -22.554892
v 10.343927 -2.324161 -21.474459
v 8.856838 0.650020 -16.897753
v 5.531665 0.650019 -17.978186
v 5.531665 0.650019 -21.474459
v 8.856838 0.650020 -22.554892
v 10.911933 0.650006 -19.726322
v 7.937796 2.488119 -19.726322
v 7.397601 -3.665658 -18.063744
v 9.352075 -3.665657 -18.698801
v 8.811885 -2.585248 -17.036205
v 10.766361 -2.585242 -19.726322
v 9.352075 -3.665657 -20.753843
v 6.189645 -3.665649 -19.726322
v 5.649436 -2.585243 -18.063738
v 7.397601 -3.665658 -21.388901
v 5.649436 -2.585243 -21.388906
v 8.811885 -2.585248 -22.416439
v 11.100244 -0.837071 -18.698797
v 11.100244 -0.837071 -20.753847
v 7.937796 -0.837071 -16.401133
v 9.892295 -0.837071 -17.036188
v 4.775349 -0.837071 -18.698797
v 5.983297 -0.837071 -17.036188
v 5.983297 -0.837071 -22.416456
v 4.775349 -0.837071 -20.753847
v 9.892295 -0.837071 -22.416456
v 7.937796 -0.837071 -23.051512
v 10.226156 0.911102 -18.063738
v 7.063707 0.911106 -17.036205
v 5.109231 0.911101 -19.726322
v 7.063707 0.911106 -22.416439
v 10.226156 0.911102 -21.388906
v 8.477992 1.991516 -18.063744
v 9.685947 1.991507 -19.726322
v 6.523518 1.991516 -18.698801
v 6.523518 1.991516 -20.753843
v 8.477992 1.991516 -21.388901
vn 0.1024 -0.9435 0.3151
vn 0.7002 -0.6617 0.2680
vn -0.2680 -0.9435 0.1947
vn -0.2680 -0.9435 -0.1947
vn 0.1024 -0.9435 -0.3151
vn 0.9050 -0.3304 0.2680
vn 0.0247 -0.3304 0.9435
vn -0.8897 -0.3304 0.3151
vn -0.5746 -0.3304 -0.7488
vn 0.5346 -0.3304 -0.7779
vn 0.8026 -0.1256 0.5831
vn -0.3066 -0.1256 0.9435
vn -0.9921 -0.1256 0.0000
vn -0.3066 -0.1256 -0.9435
vn 0.8026 -0.1256 -0.5831
vn 0.4089 0.6617 0.6284
vn -0.4713 0.6617 0.5831
vn -0.7002 0.6617 -0.2680
vn 0.0385 0.6617 -0.7488
vn 0.7240 0.6617 -0.1947
vn 0.2680 0.9435 -0.1947
vn 0.4911 0.7947 -0.3568
vn 0.4089 0.6617 -0.6284
vn -0.1024 0.9435 -0.3151
vn -0.1876 0.7947 -0.5773
vn -0.4713 0.6617 -0.5831
vn -0.3313 0.9435 0.0000
vn -0.6071 0.7947 0.0000
vn -0.7002 0.6617 0.2680
vn -0.1024 0.9435 0.3151
vn -0.1876 0.7947 0.5773
vn 0.0385 0.6617 0.7488
vn 0.2680 0.9435 0.1947
vn 0.4911 0.7947 0.3568
vn 0.7240 0.6617 0.1947
vn 0.8897 0.3304 -0.3151
vn 0.7947 0.1876 -0.5773
vn 0.5746 0.3304 -0.7488
vn -0.0247 0.3304 -0.9435
vn -0.3035 0.1876 -0.9342
vn -0.5346 0.3304 -0.7779
vn -0.9050 0.3304 -0.2680
vn -0.9822 0.1876 0.0000
vn -0.9050 0.3304 0.2680
vn -0.5346 0.3304 0.7779
vn -0.3035 0.1876 0.9342
vn -0.0247 0.3304 0.9435
vn 0.5746 0.3304 0.7488
vn 0.7947 0.1876 0.5773
vn 0.8897 0.3304 0.3151
vn 0.3066 0.1256 -0.9435
vn 0.3035 -0.1876 -0.9342
vn 0.0247 -0.3304 -0.9435
vn -0.8026 0.1256 -0.5831
vn -0.7947 -0.1876 -0.5773
vn -0.8897 -0.3304 -0.3151
vn -0.8026 0.1256 0.5831
vn -0.7947 -0.1876 0.5773
vn -0.5746 -0.3304 0.7488
vn 0.3066 0.1256 0.9435
vn 0.3035 -0.1876 0.9342
vn 0.5346 -0.3304 0.7779
vn 0.9921 0.1256 0.0000
vn 0.9822 -0.1876 0.0000
vn 0.9050 -0.3304 -0.2680
vn 0.4713 -0.6617 -0.5831
vn 0.1876 -0.7947 -0.5773
vn -0.0385 -0.6617 -0.7488
vn -0.4089 -0.6617 -0.6284
vn -0.4911 -0.7947 -0.3568
vn -0.7240 -0.6617 -0.1947
vn -0.7240 -0.6617 0.1947
vn -0.4911 -0.7947 0.3568
vn -0.4089 -0.6617 0.6284
vn 0.7002 -0.6617 -0.2680
vn 0.6071 -0.7947 0.0000
vn 0.3313 -0.9435 0.0000
vn -0.0385 -0.6617 0.7488
vn 0.1876 -0.7947 0.5773
vn 0.4713 -0.6617 0.5831
usemtl None
s off
f 1//1 14//1 13//1
f 2//2 14//2 16//2
f 1//3 13//3 18//3
f 1//4 18//4 20//4
f 1//5 20//5 17//5
f 2//6 16//6 23//6
f 3//7 15//7 25//7
f 4//8 19//8 27//8
f 5//9 21//9 29//9
f 6//10 22//10 31//10
f 2//11 23//11 26//11
f 3//12 25//12 28//12
f 4//13 27//13 30//13
f 5//14 29//14 32//14
f 6//15 31//15 24//15
f 7//16 33//16 38//16
f 8//17 34//17 40//17
f 9//18 35//18 41//18
f 10//19 36//19 42//19
f 11//20 37//20 39//20
f 39//21 42//21 12//21
f 39//22 37//22 42//22
f 37//23 10//23 42//23
f 42//24 41//24 12//24
f 42//25 36//25 41//25
f 36//26 9//26 41//26
f 41//27 40//27 12//27
f 41//28 35//28 40//28
f 35//29 8//29 40//29
f 40//30 38//30 12//30
f 40//31 34//31 38//31
f 34//32 7//32 38//32
f 38//33 39//33 12//33
f 38//34 33//34 39//34
f 33//35 11//35 39//35
f 24//36 37//36 11//36
f 24//37 31//37 37//37
f 31//38 10//38 37//38
f 32//39 36//39 10//39
f 32//40 29//40 36//40
f 29//41 9//41 36//41
f 30//42 35//42 9//42
f 30//43 27//43 35//43
f 27//44 8//44 35//44
f 28//45 34//45 8//45
f 28//46 25//46 34//46
f 25//47 7//47 34//47
f 26//48 33//48 7//48
f 26//49 23//49 33//49
f 23//50 11//50 33//50
f 31//51 32//51 10//51
f 31//52 22//52 32//52
f 22//53 5//53 32//53
f 29//54 30//54 9//54
f 29//55 21//55 30//55
f 21//56 4//56 30//56
f 27//57 28//57 8//57
f 27//58 19//58 28//58
f 19//59 3//59 28//59
f 25//60 26//60 7//60
f 25//61 15//61 26//61
f 15//62 2//62 26//62
f 23//63 24//63 11//63
f 23//64 16//64 24//64
f 16//65 6//65 24//65
f 17//66 22//66 6//66
f 17//67 20//67 22//67
f 20//68 5//68 22//68
f 20//69 21//69 5//69
f 20//70 18//70 21//70
f 18//71 4//71 21//71
f 18//72 19//72 4//72
f 18//73 13//73 19//73
f 13//74 3//74 19//74
f 16//75 17//75 6//75
f 16//76 14//76 17//76
f 14//77 1//77 17//77
f 13//78 15//78 3//78
f 13//79 14//79 15//79
f 14//80 2//80 15//80
o Cone
v -22.474924 -5.154405 -39.599792
v -22.474924 5.154405 -18.637926
v -16.038223 -5.154405 -39.197014
v -9.848883 -5.154405 -38.004166
v -4.144753 -5.154405 -36.067081
v 0.854958 -5.154405 -33.460205
v 4.958117 -5.154405 -30.283714
v 8.007034 -5.154405 -26.659685
v 9.884550 -5.154405 -22.727385
v 10.518511 -5.154405 -18.637928
v 9.884554 -5.154405 -14.548471
v 8.007036 -5.154405 -10.616170
v 4.958117 -5.154405 -6.992138
v 0.854958 -5.154405 -3.815648
v -4.144754 -5.154405 -1.208771
v -9.848888 -5.154405 0.728315
v -16.038231 -5.154405 1.921165
v -22.474936 -5.154405 2.323940
v -28.911636 -5.154405 1.921162
v -35.100979 -5.154405 0.728310
v -40.805111 -5.154405 -1.208778
v -45.804821 -5.154405 -3.815658
v -49.907974 -5.154405 -6.992149
v -52.956894 -5.154405 -10.616183
v -54.834404 -5.154405 -14.548487
v -55.468361 -5.154405 -18.637947
v -54.834389 -5.154405 -22.727406
v -52.956871 -5.154405 -26.659706
v -49.907940 -5.154405 -30.283737
v -45.804775 -5.154405 -33.460220
v -40.805058 -5.154405 -36.067097
v -35.100922 -5.154405 -38.004177
v -28.911575 -5.154405 -39.197021
vn 0.0276 0.8970 -0.4411
vn 0.0821 0.9010 -0.4261
vn 0.1344 0.9084 -0.3959
vn 0.1829 0.9184 -0.3508
vn 0.2256 0.9296 -0.2914
vn 0.2604 0.9403 -0.2190
vn 0.2851 0.9488 -0.1361
vn 0.2979 0.9535 -0.0462
vn 0.2979 0.9535 0.0462
vn 0.2851 0.9488 0.1361
vn 0.2604 0.9403 0.2190
vn 0.2256 0.9296 0.2914
vn 0.1829 0.9184 0.3508
vn 0.1344 0.9084 0.3959
vn 0.0821 0.9010 0.4261
vn 0.0276 0.8970 0.4411
vn -0.0276 0.8970 0.4411
vn -0.0821 0.9010 0.4261
vn -0.1344 0.9084 0.3959
vn -0.1829 0.9184 0.3508
vn -0.2256 0.9296 0.2914
vn -0.2604 0.9403 0.2190
vn -0.2851 0.9488 0.1361
vn -0.2979 0.9535 0.0462
vn -0.2979 0.9535 -0.0462
vn -0.2851 0.9488 -0.1361
vn -0.2604 0.9403 -0.2191
vn -0.2256 0.9296 -0.2914
vn -0.1829 0.9184 -0.3508
vn -0.1344 0.9084 -0.3959
vn -0.0821 0.9010 -0.4261
vn -0.0276 0.8970 -0.4411
vn 0.0000 -1.0000 0.0000
usemtl None
s off
f 43//81 44//81 45//81
f 45//82 44//82 46//82
f 46//83 44//83 47//83
f 47//84 44//84 48//84
f 48//85 44//85 49//85
f 49//86 44//86 50//86
f 50//87 44//87 51//87
f 51//88 44//88 52//88
f 52//89 44//89 53//89
f 53//90 44//90 54//90
f 54//91 44//91 55//91
f 55//92 44//92 56//92
f 56//93 44//93 57//93
f 57//94 44//94 58//94
f 58//95 44//95 59//95
f 59//96 44//96 60//96
f 60//97 44//97 61//97
f 61//98 44//98 62//98
f 62//99 44//99 63//99
f 63//100 44//100 64//100
f 64//101 44//101 65//101
f 65//102 44//102 66//102
f 66//103 44//103 67//103
f 67//104 44//104 68//104
f 68//105 44//105 69//105
f 69//106 44//106 70//106
f 70//107 44//107 71//107
f 71//108 44//108 72//108
f 72//109 44//109 73//109
f 73//110 44//110 74//110
f 74//111 44//111 75//111
f 75//112 44//112 43//112
f 43//113 45//113 46//113 47//113 48//113 49//113 50//113 51//113 52//113 53//113 54//113 55//113 56//113 57//113 58//113 59//113 60//113 61//113 62//113 63//113 64//113 65//113 66//113 67//113 68//113 69//113 70//113 71//113 72//113 73//113 74//113 75//113
o Player_Cube.001
v 1.611955 1.741233 -4.847463
v 1.611955 3.741233 -4.847463
v 1.611955 1.741233 -6.847463
v 1.611955 3.741233 -6.847463
v 3.611955 1.741233 -4.847463
v 3.611955 3.741233 -4.847463
v 3.611955 1.741233 -6.847463
v 3.611955 3.741233 -6.847463
vn -1.0000 0.0000 0.0000
vn 0.0000 0.0000 -1.0000
vn 1.0000 0.0000 0.0000
vn 0.0000 0.0000 1.0000
vn 0.0000 -1.0000 0.0000
vn 0.0000 1.0000 0.0000
usemtl None
s off
f 76//114 77//114 79//114 78//114
f 78//115 79//115 83//115 82//115
f 82//116 83//116 81//116 80//116
f 80//117 81//117 77//117 76//117
f 78//118 82//118 80//118 76//118
f 83//119 79//119 77//119 81//119
o Plane
v -100.867538 -0.055161 100.929504
v 100.929489 0.048169 100.867554
v -100.929489 -0.048169 -100.867554
v 100.867538 0.055161 -100.929504
vn -0.0005 1.0000 0.0000
usemtl None
s off
f 84//120 85//120 87//120 86//120
